<svg width="25" height="25" viewBox="0 0 15 15" fill="none" xmlns="http://www.w3.org/2000/svg">
<path d="M2.64 1.27L7.5 6.13L12.34 1.29C12.4248 1.19972 12.527 1.12749 12.6404 1.07766C12.7538 1.02783 12.8761 1.00141 13 1C13.2652 1 13.5196 1.10536 13.7071 1.29289C13.8946 1.48043 14 1.73478 14 2C14.0023 2.1226 13.9796 2.24439 13.9332 2.35788C13.8867 2.47138 13.8176 2.57419 13.73 2.66L8.84 7.5L13.73 12.39C13.8948 12.5512 13.9915 12.7696 14 13C14 13.2652 13.8946 13.5196 13.7071 13.7071C13.5196 13.8946 13.2652 14 13 14C12.8726 14.0053 12.7454 13.984 12.6266 13.9375C12.5078 13.8911 12.4 13.8204 12.31 13.73L7.5 8.87L2.65 13.72C2.56551 13.8073 2.46456 13.8769 2.353 13.925C2.24144 13.9731 2.12146 13.9986 2 14C1.73478 14 1.48043 13.8946 1.29289 13.7071C1.10536 13.5196 1 13.2652 1 13C0.997669 12.8774 1.02042 12.7556 1.06685 12.6421C1.11327 12.5286 1.18241 12.4258 1.27 12.34L6.16 7.5L1.27 2.61C1.10519 2.44876 1.00854 2.23041 1 2C1 1.73478 1.10536 1.48043 1.29289 1.29289C1.48043 1.10536 1.73478 1 2 1C2.24 1.003 2.47 1.1 2.64 1.27Z" fill="white"/>
</svg>
