<svg width="50" height="50" viewBox="0 0 75 75" fill="none" xmlns="http://www.w3.org/2000/svg">
<path d="M37.5 0C16.7893 0 0 16.7893 0 37.5C0 58.2107 16.7893 75 37.5 75C58.2107 75 75 58.2107 75 37.5C75 16.7893 58.2107 0 37.5 0ZM18.3106 22.9935H56.6894V28.3906L37.5 39.3311L18.3106 28.3905V22.9935V22.9935ZM18.3106 31.8421L28.0838 37.4131L18.3106 47.6577V31.8421ZM56.6894 31.8421V47.6578L46.9162 37.413L56.6894 31.8421V31.8421ZM30.7709 38.9466L37.5 42.7826L44.2291 38.9465L56.6894 52.0065H18.3106L30.7709 38.9466Z" fill="white"/>
</svg>
