<svg width="23" height="23" viewBox="0 0 18 16" fill="none" xmlns="http://www.w3.org/2000/svg">
<g clip-path="url(#clip0)">
<path d="M8.76156 4.63312L3 9.37844V14.5C3 14.6326 3.05268 14.7598 3.14645 14.8536C3.24021 14.9473 3.36739 15 3.5 15L7.00187 14.9909C7.13405 14.9903 7.26059 14.9373 7.35381 14.8436C7.44704 14.7499 7.49938 14.6231 7.49937 14.4909V11.5C7.49937 11.3674 7.55205 11.2402 7.64582 11.1464C7.73959 11.0527 7.86677 11 7.99937 11H9.99938C10.132 11 10.2592 11.0527 10.3529 11.1464C10.4467 11.2402 10.4994 11.3674 10.4994 11.5V14.4888C10.4992 14.5545 10.512 14.6197 10.537 14.6806C10.562 14.7414 10.5988 14.7967 10.6453 14.8433C10.6917 14.8899 10.7469 14.9269 10.8077 14.9521C10.8684 14.9773 10.9336 14.9903 10.9994 14.9903L14.5 15C14.6326 15 14.7598 14.9473 14.8536 14.8536C14.9473 14.7598 15 14.6326 15 14.5V9.375L9.23969 4.63312C9.17197 4.57854 9.08761 4.54877 9.00062 4.54877C8.91364 4.54877 8.82928 4.57854 8.76156 4.63312V4.63312ZM17.8625 7.85844L15.25 5.705V1.37656C15.25 1.27711 15.2105 1.18172 15.1402 1.1114C15.0698 1.04107 14.9745 1.00156 14.875 1.00156H13.125C13.0255 1.00156 12.9302 1.04107 12.8598 1.1114C12.7895 1.18172 12.75 1.27711 12.75 1.37656V3.64563L9.95219 1.34375C9.68369 1.12281 9.34678 1.002 8.99906 1.002C8.65135 1.002 8.31443 1.12281 8.04594 1.34375L0.135625 7.85844C0.0976524 7.88982 0.0662361 7.92838 0.0431711 7.97191C0.0201061 8.01545 0.00584448 8.0631 0.00120117 8.11214C-0.00344215 8.16119 0.00162383 8.21066 0.0161096 8.25775C0.0305954 8.30484 0.0542172 8.34861 0.0856251 8.38656L0.8825 9.35531C0.913822 9.3934 0.952349 9.42493 0.995874 9.44811C1.0394 9.47129 1.08707 9.48566 1.13615 9.49039C1.18524 9.49512 1.23477 9.49012 1.28193 9.47569C1.32908 9.46125 1.37292 9.43765 1.41094 9.40625L8.76156 3.35188C8.82928 3.29729 8.91364 3.26752 9.00062 3.26752C9.08761 3.26752 9.17197 3.29729 9.23969 3.35188L16.5906 9.40625C16.6286 9.43766 16.6724 9.46128 16.7194 9.47577C16.7665 9.49025 16.816 9.49532 16.865 9.49067C16.9141 9.48603 16.9617 9.47177 17.0053 9.4487C17.0488 9.42564 17.0874 9.39422 17.1188 9.35625L17.9156 8.3875C17.947 8.34933 17.9705 8.30533 17.9848 8.25804C17.9992 8.21075 18.004 8.16109 17.999 8.11193C17.9941 8.06276 17.9795 8.01506 17.9561 7.97155C17.9326 7.92805 17.9008 7.88961 17.8625 7.85844V7.85844Z" fill="#575757"/>
</g>
<defs>
<clipPath id="clip0">
<rect width="18" height="16" fill="white"/>
</clipPath>
</defs>
</svg>
