<svg width="23" height="23" viewBox="0 0 16 16" fill="none" xmlns="http://www.w3.org/2000/svg">
<path d="M13.5 4.5H3.5C3.36739 4.5 3.24021 4.44732 3.14645 4.35355C3.05268 4.25979 3 4.13261 3 4C3 3.86739 3.05268 3.74021 3.14645 3.64645C3.24021 3.55268 3.36739 3.5 3.5 3.5H12C12.1326 3.5 12.2598 3.44732 12.3536 3.35355C12.4473 3.25979 12.5 3.13261 12.5 3C12.5 2.86739 12.4473 2.74021 12.3536 2.64645C12.2598 2.55268 12.1326 2.5 12 2.5H3.5C3.10231 2.50045 2.72104 2.65863 2.43983 2.93983C2.15863 3.22104 2.00045 3.60231 2 4V12C2.00045 12.3977 2.15863 12.779 2.43983 13.0602C2.72104 13.3414 3.10231 13.4996 3.5 13.5H13.5C13.7651 13.4997 14.0193 13.3942 14.2068 13.2068C14.3942 13.0193 14.4997 12.7651 14.5 12.5V5.5C14.4997 5.23487 14.3942 4.98069 14.2068 4.79322C14.0193 4.60575 13.7651 4.5003 13.5 4.5V4.5ZM11.25 9.75C11.1017 9.75 10.9567 9.70601 10.8333 9.6236C10.71 9.54119 10.6139 9.42406 10.5571 9.28701C10.5003 9.14997 10.4855 8.99917 10.5144 8.85368C10.5433 8.7082 10.6148 8.57456 10.7197 8.46967C10.8246 8.36478 10.9582 8.29335 11.1037 8.26441C11.2492 8.23547 11.4 8.25033 11.537 8.30709C11.6741 8.36386 11.7912 8.45999 11.8736 8.58332C11.956 8.70666 12 8.85166 12 9C12 9.19891 11.921 9.38968 11.7803 9.53033C11.6397 9.67098 11.4489 9.75 11.25 9.75Z" fill="#575757"/>
</svg>
